<svg xmlns="http://www.w3.org/2000/svg" xmlns:xlink="http://www.w3.org/1999/xlink" viewBox="0 0 1235 650"><style><![CDATA[.S{fill:#fff}.T{stroke:#c09300}.U{fill:#c09300}.V{stroke-linejoin:round}.W{stroke-width:1.271}.X{stroke-width:1.27}.Y{stroke-width:1.189}]]></style><path d="M0 0h1235v650H0z" fill="#b22234"/><path d="M0 75h1235m0 100H0m0 100h1235m0 100H0m0 100h1235m0 100H0" stroke="#fff" stroke-width="50" stroke-miterlimit="10"/><path d="M0 0h494v350H0z" fill="#3c3b6e"/><g class="S"><path d="M41.2 15L53 51.2 22.1 28.8h38L29.4 51.2 41.2 15zm0 70L53 121.2 22.1 98.8h38l-30.8 22.4L41.2 85zm0 70L53 191.2l-30.8-22.4h38l-30.8 22.4L41.2 155zm0 70L53 261.2l-30.8-22.4h38l-30.8 22.4L41.2 225zm0 70L53 331.2l-30.8-22.4h38l-30.8 22.4L41.2 295zM82.3 50l11.8 36.2-30.8-22.4h38L70.6 86.2 82.3 50zm0 70l11.8 36.2-30.8-22.4h38l-30.8 22.4L82.3 120zm0 70l11.8 36.2-30.8-22.4h38l-30.8 22.4L82.3 190zm0 70l11.8 36.2-30.8-22.4h38l-30.8 22.4L82.3 260zm41.2-245l11.8 36.2-30.8-22.4h38l-30.8 22.4L123.5 15zm0 70l11.8 36.2-30.8-22.4h38l-30.8 22.4L123.5 85z"/><use xlink:href="#B"/><use xlink:href="#B" y="70"/><use xlink:href="#B" y="140"/><path d="M164.7 50l11.8 36.2-30.8-22.4h38l-30.8 22.4L164.7 50z"/><use xlink:href="#B" x="41.2" y="-35"/><use xlink:href="#B" x="41.2" y="35"/><use xlink:href="#B" x="41.2" y="105"/><path d="M205.8 15l11.8 36.2-30.8-22.4h38L194 51.2 205.8 15zm0 70l11.8 36.2-30.8-22.4h38L194 121.2 205.8 85zm0 70l11.8 36.2-30.8-22.4h38L194 191.2l11.8-36.2zm0 70l11.8 36.2-30.8-22.4h38L194 261.2l11.8-36.2zm0 70l11.8 36.2-30.8-22.4h38L194 331.2l11.8-36.2zM247 50l11.8 36.2L228 63.8h38l-30.8 22.4L247 50zm0 70l11.8 36.2-30.8-22.4h38l-30.8 22.4L247 120zm0 70l11.8 36.2-30.8-22.4h38l-30.8 22.4L247 190zm0 70l11.8 36.2-30.8-22.4h38l-30.8 22.4L247 260zm41.2-245L300 51.2l-30.8-22.4h38l-30.8 22.4L288.2 15zm0 70l11.8 36.2-30.8-22.4h38l-30.8 22.4L288.2 85z"/><use xlink:href="#B" x="164.7"/><use xlink:href="#B" x="164.7" y="70"/><use xlink:href="#B" x="164.7" y="140"/><path d="M329.3 50l11.8 36.2-30.8-22.4h38l-30.8 22.4L329.3 50z"/><use xlink:href="#B" x="205.8" y="-35"/><use xlink:href="#B" x="205.8" y="35"/><use xlink:href="#B" x="205.8" y="105"/><path d="M370.5 15l11.8 36.2-30.8-22.4h38l-30.8 22.4L370.5 15zm0 70l11.8 36.2-30.8-22.4h38l-30.8 22.4L370.5 85z"/><use xlink:href="#B" x="247"/><use xlink:href="#B" x="247" y="70"/><use xlink:href="#B" x="247" y="140"/><path d="M411.7 50l11.8 36.2-30.8-22.4h38l-30.8 22.4L411.7 50z"/><use xlink:href="#B" x="288.2" y="-35"/><use xlink:href="#B" x="288.2" y="35"/><use xlink:href="#B" x="288.2" y="105"/><path d="M452.8 15l11.8 36.2-30.8-22.4h38L441 51.2 452.8 15zm0 70l11.8 36.2-30.8-22.4h38L441 121.2 452.8 85zm0 70l11.8 36.2-30.8-22.4h38L441 191.2l11.8-36.2zm0 70l11.8 36.2-30.8-22.4h38L441 261.2l11.8-36.2zm0 70l11.8 36.2-30.8-22.4h38L441 331.2l11.8-36.2z"/></g><path d="M-.2 0H1235v649.1H-.2z"/><path d="M-.2 0H1235v432.7H-.2z" class="S"/><path d="M-.2 0H1235v216.4H-.2z" fill="#ce1126"/><path d="M601.3 325.7l68.5 63.6-4.9-115.5c-.7-17.5-15.9-13.5-27-7.2-11.2 7.2-24 7.2-37.4 2.4-13.5 4.7-26.3 4.7-37.4-2.4-11-6.3-26.3-10.3-27 7.2l-4.9 115.5 70.1-63.6h0z" class="S T V X"/><path d="M544 269.8l-4.7 112.3-8 7.2 4.9-115.5c2.2-1.6 6.2-4 7.8-4h0zm9.6 8l-4 94-8 8.2 4.9-108.5c1.5 1.6 6.3 5.5 7.1 6.3h0zm8.8 7.2l-3.2 78.4-6.5 6.3 4-89.4c1.6 1.5 4.8 3.8 5.7 4.7h0zm9.4 4l-3.2 66.8-6.3 5.1 3.2-74.3c1.6.7 4.8 2.4 6.3 2.4h0zm8.8 0l-2.3 55.7-6.5 6.3 2.4-61.3c1.6 0 5.7 0 6.4-.7h0z" class="U"/><path d="M657.1 269.8l4.7 112.3 8 7.2-4.9-115.5c-2.2-1.6-6.3-4-7.8-4h0zm-9.7 8l4 94 8 8.2-4.9-108.5c-1.5 1.6-6.2 5.5-7.1 6.3h0zm-8.7 7.2l3.2 78.4 6.5 6.3-4-89.4-5.7 4.7h0zm-9.5 4l3.2 66.8 6.3 5.1-3.2-74.3c-1.6.7-4.7 2.4-6.3 2.4h0zm-8.7 0l2.3 55.7 6.5 6.3-2.4-61.3c-1.7 0-5.7 0-6.4-.7h0z" transform="matrix(-1 0 0 1 900 0)" class="U"/><g class="T"><path d="M603.7 338.4l9.6 43.8-3.2 3.2-3.3-2.4-5.5-39 2.3 39-3.2 4-3.2-4 2.3-39-5.5 39-3.3 2.4-3.2-3.2 9.6-43.8h6.6 0z" stroke-width="1.074" class="U"/><g class="V"><path d="M579 319.1l-19.1 67.7 26.3 4 11.2-50.9-18.4-20.8h0z" class="S Y"/><g fill="none" class="W"><path d="M572.7,342.2l2.3,5.6l12.4-11.8"/><path d="M581.3,328.2l2.6,24.3l7.9-10.3"/><path d="M588.6,346.2l4.3,14.9"/><path d="M594.6 355.7l-8.7 13.2m2.7 13.2l-2.8-13.2-2.4-13.4-5.8 7.9-2.6-9.1-8.2 8.4L571 378l5.7-9.4 3.2 9.6 5.9-9.2m-20.3 16.3l5.3-7.4 3.5 11.5 4.7-8 3.2 9.6"/></g></g></g><g transform="matrix(-1 0 0 1 900 0)" class="T V"><path d="M622 319.1l19.1 67.7-26.3 4-11.2-50.9 18.4-20.8h0z" class="S Y"/><g fill="none" class="W"><path d="M628.4,342.2l-2.3,5.6L613.7,336"/><path d="M619.8 328.2l-2.6 24.3-7.9-10.3"/><path d="M612.4,346.2l-4.3,14.9"/><path d="M606.4 355.7l8.7 13.2m-2.7 13.2l2.8-13.2 2.4-13.4 5.8 7.9 2.6-9.1 8.2 8.4L630 378l-5.7-9.4-3.2 9.6-5.9-9.2m20.3 16.3l-5.3-7.4-3.5 11.5-4.7-8-3.2 9.6"/></g></g><g class="S T V"><path d="M600.5 417.1c19.9 0 39-1.6 50.2-4.7 4.7-.9 4.7-3.3 4.7-6.5 4.7-1.6 2.3-7.2 5.6-7.2-3.3.9-4-5.6-8-4.7 0-5.6-5.6-6.3-10.3-4.7-9.5 3.2-26.3 3.9-42.2 3.9-15.9-.7-32.6-.7-42.2-3.9-4.7-1.6-10.3-.9-10.3 4.7-4-.9-4.7 5.6-8 4.7 3.3 0 .9 5.6 5.6 7.2 0 3.2 0 5.6 4.9 6.5 11 3.1 30.1 4.7 50 4.7h0z" stroke-width="2.378"/><g class="W"><path d="M573.4 386.8c6.5.9 13.6 1.6 19.2.9 3.2 0 5.4 5.5-.9 6.3-5.6.7-14.3 0-19.1-.9-4-.7-12.8-2.3-18.4-3.9-5.6-2.4-1.6-7.2 1.6-6.5 5 1.7 11.3 3.3 17.6 4.1h0zm54.2 0c-6.5.9-13.6 1.6-19.1.9-3.3 0-5.6 5.5.7 6.3 5.6.7 14.3 0 19.1-.9 4-.7 12.8-2.3 18.4-3.9 5.6-2.4 1.6-7.2-1.6-6.5-4.8 1.7-11.1 3.3-17.5 4.1h0z"/><path d="M553.6 383.7c-4.9-.9-7.2 4.7-5.6 7.9.7-1.6 4-1.6 4.7-3.2.9-2.4-.7-2.4.9-4.7h0zm19.1 14.7c0-3.2 3.2-2.8 3.2-5.9 0-1.6-.9-4-2.4-4-1.6 0-3.2 1.6-3.2 3.2-.8 3 2.4 3.5 2.4 6.7zm22.7-9.1c4.7 0 4.3 6.3 2 9.5 0-2.3-4-3.2-4-4.7 0-2.5 3.6-2.5 2-4.8h0zm52-5.6c4.9-.9 7.2 4.7 5.6 7.9-.7-1.6-4-1.6-4.7-3.2-.9-2.4.7-2.4-.9-4.7h0zm-19 14.7c0-3.2-3.2-2.8-3.2-5.9 0-1.6.9-4 2.4-4 1.6 0 3.2 1.6 3.2 3.2.7 3-2.4 3.5-2.4 6.7h0zm-22.8-9.1c-4.7 0-4.3 6.3-2 9.5 0-2.3 4-3.2 4-4.7.1-2.5-3.5-2.5-2-4.8z"/></g><path d="M555.2 385.3c1.6 0 4 .7 4.7 1.6l-4.7-1.6h0zm7.9 2.4c.9 0 4 .7 5.6 1.6l-5.6-1.6h0zm28.7 3.2c-1.6 0-4.7 0-5.6.7l5.6-.7h0zm-8.8 0c-.9-.9-4-.9-5.6 0h5.6 0zm62.9-5.6c-1.6 0-3.9.7-4.7 1.6l4.7-1.6zm-7.9 2.4c-.9 0-4 .7-5.6 1.6l5.6-1.6h0zm-28.7 3.2c1.6 0 4.7 0 5.6.7l-5.6-.7h0zm8.7 0c.9-.9 4-.9 5.6 0H618h0z" stroke-width=".892"/></g><g class="U"><path d="M553.9 397.9c-.5-.1-.8-.5-.7-1 .2-.6.7-1 1.1-.8.3.1.8.6.8.8s-.3.8-.4.8-.1 0-.2.1-.4.1-.6.1h0zm54.9 3.9c-.2-.1-.5-.5-.5-.7 0-.4.6-1 .9-1 .2 0 .7.2.8.4.3.3.3.9-.2 1.2-.1.1-.7.2-1 .1h0zm.4 2.5c-.4-.1-.6-.3-.6-.8s0-.6.5-.8l.4-.2.3.2c.5.2.7.4.7.8 0 .3-.2.7-.6.9-.4 0-.4 0-.7-.1h0zm-50.9-10.9c-.3 0-.8.3-1.1.5-.6.2-1.4.6-2 .1-.6-.2-1.4 0-1.5.7.2.7 1.1 1 1.6.6.4-.5 1.5-.9 1.7.1-.5.7-.4 1.6-.8 2.3-.1.5-.3.9-.5 1.3-.5 0-1 0-1.3.3-.6 0-1.3.3-1.6.9-.4.6-.8 1.2-.9 1.9.1.7.9.9 1.6 1l2 .6c1.1.2 2.1.6 3.2.9 1.6.5 3.2.7 4.8 1.1a.9.9 0 0 0 .5.1c.7.1 1-.6 1.1-1.1l.9-3.5c.2-.5.5-1.5-.4-1.3-.5.3-1 .8-1.6.8-.9.1-.4.9 0 1.3.1.6-.1 1.3-.5 1.8-.5.3-1.2-.1-1.7-.2-.6 0-1.7-.3-1.2-1.1.2-.6.2-1.2.4-1.8.3-.6.3-1.3.5-1.9-.4-.8-1 .3-1.5.3-.3.2-1.6.3-.9.9.6.4.1 1.2 0 1.8 0 .8-.8 1-1.5.8-.6 0-1.5-.5-1-1.2.1-.6.3-1.1.4-1.7l.7-2.1c.1-.6.3-1.2.6-1.8 0-.7.5-1.3.5-2-.2-.3-.3-.4-.5-.4h0zm-3.6 7.2h.2c.2.1.3.3 0 .5-.1.1-.2.2-.3.2-.5 0-.6-.1-.6-.3s0-.2.3-.3c.2 0 .3-.1.4-.1h0zm-1.1 5.1c-.5-.5-.4-.8.3-1.4.3-.2.5-.2.9.1.6.5.6.8.1 1.3-.2.2-.3.3-.6.3-.3-.1-.4-.1-.7-.3h0zm3.1.9a.8.8 0 0 1-.6-1.1c.1-.4.2-.5.8-.5.7 0 .9.1.9.7 0 .4 0 .4-.2.6s-.6.3-.9.3h0zm89.1.1c-.2-.2-.3-.3-.3-.5 0-.4.2-.7.7-.9.7-.3 1-.3 1.2.2.3.6.3.8-.1 1.3-.2.2-.3.2-.8.2-.4-.1-.4-.1-.7-.3h0zm-85.1 1.1c-.4-.1-.6-.4-.6-.8 0-.3 0-.4.3-.6.2-.1.4-.2.6-.2.3 0 .4 0 .6.1.6.4.7.8.3 1.1-.3.5-.6.5-1.2.4h0zm22 1c-.1-.1-.3-.2-.3-.3 0-.6.1-1.1.2-1.6s0-1.1.2-1.6c.2-.9.2-1.9.4-2.8 0-.5.1-.9.2-1.4.2-.7 0-1.5.2-2.2 0-.3.3-1 .6-.6.4.6.9 1 1.4 1.5.4.3 0 .6-.3.7-.4.2-.5.6-.5 1-.1.4-.2.8-.2 1.2-.1.6-.1 1.3-.2 1.9-.2.6-.1 1.3-.2 1.9 0 .4-.2.8-.2 1.2s-.1.9-.4 1.2c-.2.2-.7.2-.9-.1h0zm29.7-9.8c-.5.4-.9.8-1.3 1.2-.6.4.5.7.6 1.1.2.6.1 1.2.2 1.8.2.6.3 1.1.2 1.7s-.9.5-1.2.8c-.5.2-.7.7-1.1 1a4.53 4.53 0 0 0-.3 1.6c0 .4-.3.9 0 1.3 0 .1.1.1.1.2.1.1.3 0 .5.1.5 0 1 0 1.5-.2 1.2-.2 2.4-.2 3.7-.3.7 0 1.5-.2 2.2-.2.6.1.9-.5.8-1-.3-.7 0-1.4-.3-2.1-.2-.7-.1-1.4-.3-2.1 0-.5-.7-.8-1.1-.3-.3.3-.9.4-1.2.8-.3.6.6.6.8 1.1s.1 1 .2 1.5c.1.6-.5.6-.9.7-.5.2-1.3.3-1.6-.3-.2-.5-.2-1-.2-1.5 0-.9-.2-1.8-.3-2.7l-.3-3.3c0-.3-.1-1.1-.7-.9h0zm-.7 8.2h.3v.4.4l-.4.1c-.2.1-.4.1-.4.1s-.1-.1-.2-.1c-.2-.2-.2-.4.1-.7.3-.1.4-.2.6-.2h0zm-29.9-9.2c-.4.1-.9.7-1.3.7-.9.1-.8.9-.1 1.2.1.3 0 .6 0 .9.1.8-.4 1.4-.3 2.2 0 .9-.3 1.7-.3 2.6-.2.9-.2 1.8-.4 2.8-.1.8-.7.5-1.2.3v-1.1c.2-.8-.4-1.1-1.1-1.2-.7.1-1-.5-.9-1.1.3-.4 1-.3 1.5-.3 1 .2.9-1.1.4-1.6-.3-.6-1.2-.9-1.4-1.6.1-.9-.5-1.7-1.2-2.2-1.1-.1-1.9.9-2.3 1.8-.5.1-.9.3-1.3.4-.7.2-1.7 1.4-.8 1.9.5.1 2.2.5 1.5 1.3-.4.7-1.2.7-1.9.5-.7 0-1.5-.4-1.5-1.2-.1-.7-.1-1.6-.5-2.3-.1-.8-1.1-.6-1.2.1-.7.5-.6 1.4-.1 2 .3.7 0 1.6-.3 2.3-.2.9-1.2.9-1.8 1.2-.3.1-1.6-.1-1.2.7.8.3 1.7.5 2.4.3.8-.1 1.5-.7 1.9-1.4.6-.6 1.5-.3 2.2-.3.8 0 1.6.5 2.3.2.2-.6 1.2-1.5 1.5-.5-.1.9.7 1.3 1.5 1.2.9 0 .5.6.5 1.1.1.9.7 1.4 1.4 1.8.3.1.5 0 .8 0 .7-.2 1.6-.6 1.8-1.4.3-.7.3-1.5.5-2.2.2-1.1.4-2.3.4-3.4.3-1 .2-2.1.4-3.2l.3-2.3c.2-.3 0-.3-.2-.2h0zm-6.8 4.1c.2 0 .2.2.3.5 0 .4.2.7.4.7s.2.2 0 .4c-.1.1-.3.1-.7.1-.6 0-.9-.2-1.3-.5l-.2-.2.3-.2c.1-.1.4-.3.6-.5.3-.2.4-.3.6-.3h0zm66-7.9c-.6 0-1.1.1-1.7.3-1-.1-1.6 1-.6 1.6.6 1.5 1.5-.3 2.5-.2 1.4.3 1.6 1.8 1.8 3 .1 1.2.4 2.3.8 3.4 1 1.1-.7 1.7-1.4.9-.6-.7-1.9-1.5-2.7-.6-.9.4-.9 1.6-1.7 1.9-1.2.4-1.4-1.1-2-1.8-.6-.8-1.7-.9-2.6-1.2-.4-.9-.2-2.3-1.1-2.9-.7.3-2.1 1.7-1 2.3 1.1 1-.5 1.4-1 2.1-.7.8-.8 1.9-1 3-1.3.7-1.5-.8-1.7-1.7-.1-1.1-1-.8-1.7-.4-1 .4-1.4 1.3-2.1 2-.1.6 0 1.4 0 2 .2.8 1.2.4 1.8.4 1-.4 1.4.6.6 1.2-.5.7-2.2.3-2.1 1.4.5.1 1.1 0 1.7 0 1.1-.3 2.3-1.1 2.4-2.3.1-1.1 1.7-.9 2.5-1.1 1-.3 2.3-.4 2.5.9.7.7 2.2 1.6 3 .6.8-.5 1.2-1.3 1.1-2.3-.2-.8 1.3-.8 1.6-.4.5.9 2.2.6 2.9.1.8-.6 1-1.7 2.2-1.7 1.8-.5 3.6-.8 5.4-1.5 1.4-.3-.2-1.2-.6-1.7-1.1-.5-2 1.6-3.2.6-.9-.7-.9-2.1-1.2-3.1-.2-1.4-.2-2.9-1.2-4-.3-.6-1.2-.8-2.2-.8h0zm-6.8 9.5c.1 0 .3.1.5.2.4.2.8.6.8 1 0 .2-.1.2-.4.4-.2.1-.4.2-.5.2-.2 0-.6-.4-.6-.5s-.1-.3-.1-.5c-.1-.3-.1-.3.1-.5 0-.2.1-.3.2-.3zm6.5.3c.4 0 .6.1.8.4s.1.6-.4.8l-.4.2-.4-.2c-.3-.2-.3-.3-.3-.5 0-.3.3-.6.7-.7zm-8.9.1c.1 0 .2 0 .3.2.2.2.2.3.3.6v.6c0 .2-.1.2-.6.2-.6 0-.7-.1-.7-.7 0-.4 0-.5.2-.7.3-.1.4-.1.5-.2zm-5.5 1.5c.2 0 .4.2.4.4.1.3 0 .5-.3.6-.2.1-.7.2-.9.1l-.2-.2c-.1-.1-.1-.2 0-.3.1 0 .1-.1.1-.2 0 0 .1-.2.2-.3.3-.1.5-.2.7-.1h0zm9.3 1.2c.2 0 .3.1.4.2a.37.37 0 0 1 0 .6c-.1.1-.9.1-1.1 0-.1 0-.2-.1-.2-.2s0-.2.3-.3c.2-.3.4-.3.6-.3h0z"/><path d="M618.4 411.6c-.1-.1-.2-.1-.1-.2.2-.3.5-.4.8-.5.5-.2 1-.6 1.4-1.1 0-.3.4-.5.4-.9 0-.5 0-1-.1-1.4s-.5-.8-.8-1-.7-.3-.8-.6.3-.6.4-.9c.2-.4.4-.9.7-1.3.3-.3.7 0 .8.3.2.3.4.6.5.9.3.3.6.7.7 1.2.1.3.4.6.4 1s.2.8.2 1.2c0 .6 0 1.1-.2 1.7-.1.3-.4.5-.6.7-.3.3-.7.6-1.1.7-.3.1-.5.4-.8.3-.5 0-1 .1-1.5 0-.2 0-.3-.2-.3-.1h0zm-6.9.4c-.2-.2-.3-.4-.3-.6s0-.3.3-.6c.4-.4.7-.5 1.4-.1s1 .4 1 .1c.1-.3.5-.5.9-.5.3 0 .4 0 .6.2.3.2.3.2.3.7s0 .5-.3.7-.3.3-.7.2c-.4 0-.7-.2-.8-.6-.1-.3-.1-.3-.2-.1 0 .1-.1.1-.2.1-.2.1-.5.3-.8.5-.1.1-.3.1-.5.1-.3.2-.4.2-.7-.1h0zm-19.8-8.9c-.7 0-1.4.6-1.5 1.2.2.8.8 1.5.4 2.3.3 1-.8 1.4-1.5.8-.4-1-.6-2-1.3-2.9-.8-.2-1.2 1.1-1.7 1.5.3.8 1.1 1.4 1.2 2.4.2.9-.4 1.9-1.2 2.4-.7.7-1.6.4-2.5.6-1 .6.8.8 1.2.8 1 .1 2.1 0 2.9-.8.8-.4.7-1.7 1.6-1.8 1.6-.1 3.2.2 4.8.3.8.2 2.2-.1 2.8.5 0 1.1.9 1.8 1.8 2.2.5.1 1-.5 1.5-.6 1-.3.7-1.5 1.3-2l5-.1c.3 0 .4-.4.6-.6 0-.6-.1-1.3-.2-1.9-.3-.8.1-1.8-.5-2.5-.8-.2-1.5.5-2.4.6-.9.4-1.7 1.3-1.8 2.3-.5.9-1.4-.2-1.1-.9 0-.3.1-.7 0-1-.5-.6-1.4-.4-2.1-.5-1 0-2-.2-3-.2-.9-.1-1.8.1-2.7-.2-1 0-.9-1-1.1-1.8 0 0-.3-.1-.5-.1h0zm2 3.7c.3 0 .7.1 1 .1.4.1.9-.1 1.3 0 1 .2 2 .1 2.9.2.3 0 .4.2.6.3v2.1c0 .3.1.6-.2.8-.1.1-.2.1-.3.1-.3-.1-.6-.2-.7-.5v-1.1-.3c-.2-.2-.5-.2-.7-.3-.8 0-1.7-.1-2.5-.1-.7 0-1.4.1-2.1-.1-.3-.1-.6-.1-.8-.3-.2-.3.1-.6.3-.7.5-.1.9-.2 1.2-.2h0zm11.3.3c.2 0 .2 0 .3.3 0 .2.1.4.1.5s0 .2-.2.2c-.5.2-1 .2-1.2-.1-.1-.1 0-.4.2-.6.3-.2.6-.3.8-.3h0z"/></g><g class="S T"><path d="M600.5 350.5c32.6-25.1 29.8-61.9 29.8-61.9-.9.2-1.7.3-2.5.3-6.8 0-23.2-3.9-27-8.9-4.1 4.5-20.8 8.9-27.6 8.9-.9 0-1.7-.1-2.5-.3 0 0-2.8 36.8 29.8 61.9h0z" stroke-width="1.15"/><path d="M627.7 291.3h-.8c-6.2 0-20.6-3.2-26.2-8-5.8 4.4-20.5 8-26.6 8-.3 0-.6 0-.8-.1 0 1.4.1 2.8.1 4.1.3 4.9 1.2 9.8 2.5 14.6 4.1 14.9 12.5 27.6 24.6 37.2 12.1-9.6 20.5-22.3 24.6-37.2 1.3-4.7 2.2-9.6 2.5-14.5.1-1.3.2-2.7.1-4.1h0z" stroke-width=".916"/></g><path d="M589.9 288.3c-5.9 1.8-12.2 3-15.8 3-.3 0-.6 0-.8-.1 0 1.4.1 2.8.2 4.2.3 4.9 1.2 9.8 2.5 14.5 2.8 10 7.5 19 14 26.8l-.1-48.4h0zm20.6-.1v49.3c6.8-7.9 11.7-17.2 14.6-27.6 1.3-4.7 2.1-9.6 2.5-14.5.1-1.3.2-2.7.2-4.1h-.8c-3.8.1-10.5-1.1-16.5-3.1h0z" class="U"/><g class="T"><path d="M612.8 276.4c.7 0-.9-3.6-.9-3.6 1.8 1.8 8.4 2.2 8.4 2.2-4-1.8-8-15.1-7.5-25.7.4-10.7-1.5-14.9-3.1-16.4-2-2-8.4-3.8-12.7-4-2.4-.1-2 1.8-2 1.8-4.4-1.1-8.9-1.6-10.9-.2-1.9 1.3-2.3 7.5-.9 6.4 3.3-2.7 6.2-.2 8.2 2.7 1.8 2.5 1.6 9.8-.9 18.2-2.7 8.9-10 17.7-10 17.7 4 0 9.5-3.5 9.5-3.5l-1.3 5.5c4.2-2 7.5-5.1 7.5-5.1l4 4.2c1.3-1.8 4-4.2 4-4.2s3.5 3.5 8.6 4h0z" stroke-width="1.218" class="S"/><path d="M596.6 250.9s-2.2 16.4-6.4 21.1m10-21.6s-.9 16.6-3.8 22m6.9-21.3s0 18.2 1.1 21.3m2.9-20.4s.9 15.3 4.7 20.8" fill="none" class="X"/><path d="M592.6 242.9c-.2-1.5-.5-2.6-1.1-3.3-2-2.9-4.9-5.3-8.2-2.7 0 0 1.1-3.5 3.6-3.6 1.9-.1 6.2 1.4 9.9 7.8 0 0-2.8-.6-3.5 0-1.2 1.1-.7 1.8-.7 1.8h0zm-9.6-10.3c.3-.9.7-1.7 1.3-2.1 2-1.3 6.4-.9 10.9.2 0 0-.4-1.9 2-1.8 4.2.2 10.7 2 12.7 4 .5.5 1 1.3 1.5 2.4h-.1c-1-1.4-3.8-1.3-4.4-1.2-1.1.1-1.7.1-3.1.4-.7.2-1.7.4-2.2.8-.4.4-.8 1.6-1.5 1.6-1.1 0-1-.3-1.3-.6-.4-.4-.5-1.1-.9-1-1.1.2-2.9-.7-5.1-2.4-2.2-1.8-3.1-2.2-6-2s-3.8 1.8-3.8 1.8v-.1h0z" stroke-width=".354" class="U"/></g><circle cx="599.3" cy="234" r="1.2" class="S"/><defs ><path id="B" d="M123.5 155l11.8 36.2-30.8-22.4h38l-30.8 22.4 11.8-36.2z"/></defs></svg>